<svg width="25" height="24" viewBox="0 0 25 24" fill="none" xmlns="http://www.w3.org/2000/svg">
<g id="Layer Group/ 24 / Monochrome">
<path id="Vector" opacity="0.4" d="M12.5 14.1953C12.3245 14.1953 12.1521 14.1491 12 14.0615L2.99998 8.86426C2.52159 8.58794 2.35777 7.97612 2.63409 7.49773C2.72185 7.34579 2.84804 7.2196 2.99998 7.13184L12 1.93848C12.3096 1.76074 12.6903 1.76074 13 1.93848L22 7.13184C22.4784 7.40816 22.6422 8.01998 22.3659 8.49837C22.2781 8.65031 22.1519 8.7765 22 8.86426L13 14.0615C12.8479 14.1491 12.6755 14.1953 12.5 14.1953Z" fill="#7D8186"/>
<path id="Vector_2" opacity="0.6" d="M22 11.1318L20.0359 9.99847L13 14.0615C12.6905 14.2399 12.3095 14.2399 12 14.0615L4.96409 9.99847L2.99998 11.1318C2.52159 11.4082 2.35777 12.02 2.63409 12.4984C2.72185 12.6503 2.84804 12.7765 2.99998 12.8643L12 18.0615C12.3095 18.2399 12.6905 18.2399 13 18.0615L22 12.8643C22.4784 12.5879 22.6422 11.9761 22.3659 11.4977C22.2781 11.3458 22.1519 11.2196 22 11.1318Z" fill="#7D8186"/>
<path id="Vector_3" d="M22 15.1318L20.0359 13.9985L13 18.0615C12.6905 18.2399 12.3095 18.2399 12 18.0615L4.96409 13.9985L2.99998 15.1318C2.52159 15.4082 2.35777 16.02 2.63409 16.4984C2.72185 16.6503 2.84804 16.7765 2.99998 16.8643L12 22.0615C12.3095 22.2399 12.6905 22.2399 13 22.0615L22 16.8643C22.4784 16.5879 22.6422 15.9761 22.3659 15.4977C22.2781 15.3458 22.1519 15.2196 22 15.1318Z" fill="#7D8186"/>
</g>
</svg>
