<svg width="191" height="154" viewBox="0 0 191 154" fill="none" xmlns="http://www.w3.org/2000/svg">
<g id="Group 79">
<g id="Group 78">
<path id="Vector" d="M95.3214 15.1474C96.4629 13.4825 97.5094 11.8176 98.6985 10.2479C101.505 6.53751 104.882 3.44554 109.258 1.68551C116.916 -1.45402 123.956 -0.122102 130.33 4.96775C135.372 8.96351 138.226 14.3388 139.415 20.6178C140.842 27.9909 139.557 35.0786 136.513 41.8809C133.897 47.827 130.092 53.0596 125.668 57.7688C119.437 64.3809 112.302 69.8037 104.549 74.5605C101.695 76.3206 98.6985 77.8903 95.797 79.5552C95.5116 79.698 95.2738 79.7455 94.9408 79.6028C86.6169 75.1789 78.6734 70.1367 71.491 64.0003C65.4977 58.8154 60.1704 53.012 56.27 46.0194C53.7015 41.5003 51.8464 36.7435 51.1329 31.6061C49.8962 23.0914 51.4659 15.195 57.0311 8.39269C60.4082 4.20664 64.7367 1.44766 70.1116 0.44872C75.4865 -0.550219 80.4333 0.639 84.9521 3.58825C89.0427 6.2521 92.0393 9.86731 94.5603 13.9582C94.7981 14.3388 95.036 14.7193 95.3214 15.1474C95.3214 15.1474 95.2738 15.1474 95.3214 15.1474Z" fill="#FF0066"/>
<path id="Vector_2" d="M190.738 118.371C190.548 119.608 190.5 120.892 190.215 122.082C188.74 127.837 184.935 131.215 179.275 132.499C174.471 133.593 169.904 132.832 165.861 129.835C162.722 127.552 161.057 124.365 160.534 120.559C160.201 118.086 160.296 115.66 161.01 113.281C162.199 109.428 164.577 106.527 168.24 104.862C173.472 102.436 178.704 102.578 183.746 105.433C188.074 107.859 190.215 111.759 190.643 116.659C190.69 117.039 190.738 117.467 190.738 117.848C190.738 117.991 190.738 118.181 190.738 118.371ZM180.797 118.324C180.654 117.372 180.607 116.706 180.464 116.088C179.893 113.662 178.038 112.045 175.66 111.902C173.567 111.807 171.617 113.186 170.856 115.374C170.237 117.182 170.237 119.037 170.903 120.845C171.664 122.89 173.329 124.127 175.374 124.175C177.42 124.222 179.275 123.128 180.083 121.13C180.416 120.179 180.559 119.132 180.797 118.324Z" fill="#282F41"/>
<path id="Vector_3" d="M117.249 132.88C114.728 132.88 112.255 132.88 109.782 132.88C108.64 132.88 107.451 132.88 106.309 132.88C105.976 132.88 105.786 132.784 105.643 132.451C104.977 131.024 104.264 129.597 103.598 128.17C103.455 127.79 103.265 127.647 102.837 127.647C97.8902 127.647 92.8958 127.647 87.9489 127.647C87.5684 127.647 87.3782 127.79 87.2355 128.123C86.5695 129.597 85.9036 131.024 85.1901 132.451C85.095 132.642 84.8572 132.832 84.6669 132.832C81.0044 132.832 77.3418 132.832 73.7268 132.832C73.6317 132.832 73.5841 132.832 73.489 132.784C73.4414 132.023 73.4414 131.31 73.822 130.596C80.1006 117.42 86.3793 104.243 92.6579 91.0668C92.8482 90.6387 93.086 90.4484 93.6093 90.4484C94.8935 90.496 96.1778 90.496 97.4145 90.4484C97.8902 90.4484 98.128 90.5911 98.3183 91.0193C103.503 102.008 108.688 112.996 113.872 123.984C114.919 126.172 115.918 128.361 116.964 130.501C117.297 131.357 117.297 132.071 117.249 132.88ZM95.3692 108.382C93.8947 111.807 92.4677 115.137 91.0407 118.466C93.9898 118.466 96.8437 118.466 99.7928 118.466C98.3183 115.137 96.8913 111.807 95.3692 108.382Z" fill="#282F41"/>
<path id="Vector_4" d="M155.111 132.832C151.782 132.832 148.452 132.832 145.122 132.832C145.122 129.169 145.122 125.506 145.122 121.749C144.837 121.986 144.647 122.129 144.456 122.272C142.649 123.746 140.842 125.269 139.082 126.743C138.606 127.171 138.083 127.124 137.607 126.743C135.8 125.221 133.992 123.699 132.232 122.177C132.089 122.082 131.994 121.986 131.756 121.796C131.756 125.554 131.756 129.169 131.756 132.832C128.379 132.832 125.097 132.832 121.768 132.832C121.768 123.128 121.768 113.424 121.768 103.673C122.767 103.673 123.718 103.673 124.717 103.673C124.907 103.673 125.05 103.863 125.192 104.006C129.473 107.811 133.707 111.616 137.988 115.422C138.13 115.517 138.225 115.612 138.416 115.755C139.605 114.708 140.746 113.662 141.936 112.663C145.17 109.761 148.452 106.86 151.686 104.006C151.924 103.815 152.305 103.673 152.638 103.625C153.446 103.577 154.255 103.625 155.111 103.625C155.111 113.424 155.111 123.08 155.111 132.832Z" fill="#282F41"/>
<path id="Vector_5" d="M21.3094 100.2C21.3094 111.093 21.3094 121.891 21.3094 132.737C17.6944 132.737 14.127 132.737 10.512 132.737C10.512 121.891 10.512 111.093 10.512 100.2C6.99217 100.2 3.51986 100.2 0 100.2C0 96.9653 0 93.7782 0 90.5435C10.6071 90.5435 21.1667 90.5435 31.7263 90.5435C31.7263 93.7306 31.7263 96.9177 31.7263 100.2C28.254 100.2 24.8292 100.2 21.3094 100.2Z" fill="#282F41"/>
<path id="Vector_6" d="M56.508 103.672C59.9327 103.672 63.2623 103.672 66.687 103.672C66.687 103.91 66.687 104.101 66.687 104.338C66.687 110.76 66.687 117.182 66.687 123.556C66.687 123.984 66.687 124.412 66.687 124.793C66.7821 125.982 67.2578 126.458 68.4469 126.553C68.6372 126.553 68.8274 126.6 69.0177 126.6C69.0177 128.456 69.0177 130.216 69.0177 132.118C68.0188 132.309 67.02 132.547 66.0211 132.642C64.5465 132.737 63.0244 132.88 61.5499 132.737C58.363 132.404 57.2214 131.262 56.6507 128.17C56.6031 128.265 56.5555 128.265 56.508 128.361C54.8432 131.072 52.3222 132.309 49.278 132.642C47.5181 132.832 45.7582 132.642 44.0458 132.071C40.9065 131.024 39.1941 128.694 38.5282 125.602C38.1952 123.937 38.005 122.177 37.9574 120.464C37.8623 117.753 37.9574 115.041 37.9099 112.377C37.9099 111.902 37.8623 111.379 37.8147 110.903C37.672 109.856 37.1012 109.333 36.0548 109.19C35.817 109.143 35.6267 109.143 35.3413 109.095C35.3413 107.383 35.3413 105.718 35.3413 103.91C36.4829 103.72 37.672 103.387 38.8612 103.339C40.2881 103.292 41.7151 103.292 43.0945 103.53C46.0436 104.148 47.851 106.384 47.9461 109.571C48.0413 112.901 47.9937 116.278 47.9937 119.608C47.9937 120.274 48.0413 120.987 48.184 121.653C48.7072 124.317 50.8952 125.554 53.4638 124.555C55.2237 123.842 56.175 122.462 56.4128 120.607C56.4604 120.179 56.4604 119.751 56.4604 119.275C56.4604 114.328 56.4604 109.428 56.4604 104.481C56.508 104.196 56.508 103.958 56.508 103.672Z" fill="#282F41"/>
<path id="Vector_7" d="M167.954 150.813C167.954 151.859 167.954 152.906 167.954 154C167.621 154 167.383 154 167.05 154C167.05 153.81 167.05 153.572 167.05 153.382C167.05 151.336 167.05 149.338 167.05 147.293C167.05 146.865 167.05 146.389 166.432 146.341C166.432 146.151 166.432 145.961 166.432 145.723C166.622 145.723 166.813 145.675 167.003 145.675C167.479 145.723 167.669 145.866 167.859 146.532C168.382 145.818 169.096 145.485 169.904 145.628C170.428 145.675 170.998 145.866 171.427 146.199C172.473 147.007 172.663 148.815 171.95 150.004C171.236 151.241 170.047 151.526 167.954 150.813ZM167.907 148.863C167.954 150.052 167.954 150.052 168.763 150.337C169.524 150.575 170.237 150.575 170.856 150.004C171.522 149.386 171.569 148.577 171.379 147.721C171.141 146.817 170.57 146.389 169.714 146.389C168.906 146.389 168.24 146.912 168.049 147.721C167.954 148.101 167.954 148.482 167.907 148.863Z" fill="#282F41"/>
<path id="Vector_8" d="M42.7614 145.723C42.7614 147.34 42.7614 148.863 42.7614 150.432C42.9992 150.48 43.237 150.48 43.4748 150.527C43.4748 151.193 43.4748 151.812 43.4748 152.478C43.237 152.478 42.9992 152.478 42.7614 152.478C42.7614 152.05 42.7137 151.669 42.7137 151.193C41.2392 151.193 39.8123 151.193 38.3378 151.193C38.3378 151.622 38.2901 152.002 38.2901 152.478C38.0523 152.478 37.8621 152.478 37.5767 152.478C37.5767 151.859 37.5767 151.193 37.5767 150.527C38.3853 150.432 38.528 149.814 38.6231 149.1C38.7658 148.101 38.9085 147.15 39.0512 146.151C39.0988 145.771 39.2415 145.628 39.622 145.628C40.5733 145.771 41.6198 145.723 42.7614 145.723ZM41.8576 150.48C41.8576 149.148 41.8576 147.816 41.8576 146.484C41.1441 146.484 40.4782 146.484 39.8123 146.484C39.7172 147.198 39.6696 147.864 39.5269 148.482C39.4318 149.148 39.2415 149.766 39.0988 150.432C39.9074 150.48 40.8587 150.48 41.8576 150.48Z" fill="#282F41"/>
<path id="Vector_9" d="M57.4117 145.771C57.6971 145.771 57.9349 145.771 58.2203 145.771C58.2203 147.293 58.2203 148.815 58.2203 150.385C59.1241 150.385 60.0278 150.385 60.9791 150.385C60.9791 148.863 60.9791 147.34 60.9791 145.771C61.3121 145.771 61.5499 145.771 61.8829 145.771C61.8829 147.34 61.8829 148.91 61.8829 150.432C62.1207 150.48 62.3585 150.48 62.5488 150.528C62.5488 151.193 62.5488 151.812 62.5488 152.478C62.311 152.478 62.0731 152.478 61.7877 152.478C61.7877 152.05 61.7877 151.669 61.7877 151.193C60.3132 151.193 58.8387 151.193 57.3641 151.193C57.4117 149.386 57.4117 147.578 57.4117 145.771Z" fill="#282F41"/>
<path id="Vector_10" d="M133.707 150.385C133.707 148.815 133.707 147.34 133.707 145.771C133.992 145.771 134.278 145.771 134.563 145.771C134.563 147.34 134.563 148.863 134.563 150.432C134.849 150.48 135.039 150.48 135.229 150.528C135.229 151.193 135.229 151.812 135.229 152.478C134.991 152.478 134.753 152.478 134.468 152.478C134.468 152.097 134.468 151.669 134.468 151.241C132.993 151.241 131.519 151.241 130.044 151.241C130.044 149.386 130.044 147.578 130.044 145.771C130.33 145.771 130.568 145.771 130.901 145.771C130.901 147.293 130.901 148.863 130.901 150.385C131.852 150.385 132.708 150.385 133.707 150.385Z" fill="#282F41"/>
<path id="Vector_11" d="M23.8783 151.193C23.5929 151.193 23.4026 151.193 23.0697 151.193C23.0697 150.052 23.0697 148.91 23.0697 147.816C23.0221 147.816 22.9746 147.816 22.927 147.769C22.3087 148.482 21.7378 149.148 21.0719 149.909C20.4536 149.196 19.8828 148.482 19.1693 147.673C19.1693 148.91 19.1693 150.004 19.1693 151.146C18.8363 151.146 18.5985 151.146 18.3131 151.146C18.3131 149.338 18.3131 147.578 18.3131 145.628C18.5509 145.818 18.7412 145.913 18.8364 146.056C19.5974 146.912 20.3109 147.816 21.0719 148.72C21.9757 147.673 22.7843 146.627 23.688 145.628C23.7356 145.675 23.7832 145.723 23.8308 145.771C23.8783 147.578 23.8783 149.338 23.8783 151.193Z" fill="#282F41"/>
<path id="Vector_12" d="M144.171 150.29C144.457 150.718 144.362 151.051 143.838 151.098C143.077 151.193 142.269 151.336 141.508 151.241C140.033 151.051 139.129 149.719 139.272 148.244C139.415 146.674 140.461 145.676 142.031 145.628C143.933 145.58 144.932 146.722 144.504 148.577C143.077 148.577 141.603 148.577 140.176 148.577C140.176 150.337 141.508 150.908 144.171 150.29ZM143.696 147.864C143.791 146.96 143.172 146.341 142.126 146.341C140.984 146.294 140.176 146.96 140.223 147.864C141.413 147.864 142.554 147.864 143.696 147.864Z" fill="#282F41"/>
<path id="Vector_13" d="M33.5335 148.577C32.1066 148.577 30.6796 148.577 29.2526 148.577C29.1099 150.337 30.7271 150.956 33.2481 150.242C33.486 150.623 33.486 151.003 32.9627 151.051C32.2017 151.146 31.3931 151.289 30.632 151.193C29.4429 151.051 28.5867 150.195 28.3964 149.1C28.2062 147.911 28.3964 146.817 29.4429 146.056C30.3466 145.438 31.8687 145.39 32.7249 145.961C33.5335 146.484 33.8665 147.483 33.5335 148.577ZM32.82 147.864C32.82 146.865 32.2492 146.341 31.2028 146.341C30.1088 146.341 29.3477 146.96 29.3477 147.864C30.4893 147.864 31.6309 147.864 32.82 147.864Z" fill="#282F41"/>
<path id="Vector_14" d="M119.294 151.193C119.009 151.193 118.771 151.193 118.533 151.193C118.533 149.957 118.533 148.72 118.533 147.388C117.202 148.672 115.87 149.957 114.538 151.241C114.538 149.433 114.538 147.626 114.538 145.771C114.776 145.771 115.013 145.771 115.346 145.771C115.346 146.96 115.346 148.149 115.346 149.529C116.678 148.197 117.915 146.912 119.199 145.628C119.247 145.675 119.294 145.723 119.342 145.771C119.294 147.578 119.294 149.386 119.294 151.193Z" fill="#282F41"/>
<path id="Vector_15" d="M109.686 145.628C109.686 147.578 109.686 149.386 109.686 151.193C109.401 151.193 109.163 151.193 108.878 151.193C108.878 149.957 108.878 148.72 108.878 147.388C107.546 148.72 106.309 150.004 105.025 151.336C104.977 151.289 104.93 151.289 104.882 151.241C104.882 149.433 104.882 147.673 104.882 145.818C105.12 145.818 105.405 145.818 105.691 145.818C105.691 147.055 105.691 148.244 105.691 149.481C105.834 149.338 105.976 149.291 106.071 149.148C107.07 148.101 108.069 147.103 109.116 146.056C109.211 145.913 109.401 145.818 109.686 145.628Z" fill="#282F41"/>
<path id="Vector_16" d="M51.799 147.34C50.4196 148.672 49.1353 149.909 47.8035 151.193C47.8035 149.386 47.8035 147.626 47.8035 145.771C48.0413 145.771 48.3267 145.771 48.6121 145.771C48.6121 147.007 48.6121 148.197 48.6121 149.481C49.9915 148.244 51.1331 146.817 52.6076 145.58C52.6076 147.578 52.6076 149.338 52.6076 151.193C52.3698 151.193 52.0844 151.193 51.799 151.193C51.799 149.957 51.799 148.72 51.799 147.34Z" fill="#282F41"/>
<path id="Vector_17" d="M71.7765 151.194C71.4911 151.194 71.2533 151.194 70.9679 151.194C70.9679 149.957 70.9679 148.72 70.9679 147.34C69.6361 148.672 68.3994 149.957 67.1151 151.241C67.0675 151.194 67.02 151.194 66.9724 151.146C66.9724 149.338 66.9724 147.578 66.9724 145.723C67.2102 145.723 67.4481 145.723 67.7335 145.723C67.7335 146.96 67.7335 148.149 67.7335 149.433C69.1129 148.197 70.2544 146.77 71.729 145.485C71.7765 147.578 71.7765 149.338 71.7765 151.194Z" fill="#282F41"/>
<path id="Vector_18" d="M76.5804 145.771C76.8658 145.771 77.1037 145.771 77.4366 145.771C77.4366 146.484 77.4366 147.198 77.4366 147.959C78.5306 147.959 79.5295 147.959 80.6235 147.959C80.6235 147.245 80.6235 146.532 80.6235 145.771C80.9565 145.771 81.1943 145.771 81.4797 145.771C81.4797 147.578 81.4797 149.386 81.4797 151.193C81.2419 151.193 81.004 151.193 80.6711 151.193C80.6711 150.385 80.6711 149.624 80.6711 148.815C79.5771 148.815 78.5782 148.815 77.5318 148.815C77.5318 149.624 77.5318 150.385 77.5318 151.193C77.1988 151.193 76.961 151.193 76.6756 151.193C76.5804 149.386 76.5804 147.626 76.5804 145.771Z" fill="#282F41"/>
<path id="Vector_19" d="M148.975 145.771C149.261 145.771 149.499 145.771 149.784 145.771C149.784 146.389 149.784 147.007 149.784 147.578C149.784 147.721 149.974 147.959 150.069 147.959C150.973 148.006 151.924 147.959 152.923 147.959C152.923 147.198 152.923 146.484 152.923 145.723C153.256 145.723 153.494 145.723 153.779 145.723C153.779 147.531 153.779 149.291 153.779 151.146C153.494 151.146 153.256 151.146 152.923 151.146C152.923 150.337 152.923 149.576 152.923 148.767C151.877 148.767 150.878 148.767 149.784 148.767C149.784 149.576 149.784 150.337 149.784 151.146C149.451 151.146 149.213 151.146 148.928 151.146C148.975 149.386 148.975 147.626 148.975 145.771Z" fill="#282F41"/>
<path id="Vector_20" d="M96.606 151.193C96.2731 151.193 95.9877 151.193 95.7023 151.193C95.7023 149.386 95.7023 147.578 95.7023 145.771C95.9877 145.771 96.2255 145.771 96.5585 145.771C96.5585 146.532 96.5585 147.245 96.5585 147.959C98.3184 148.292 98.9843 147.816 99.5551 145.771C99.6978 145.771 99.7929 145.771 99.9356 145.771C100.031 145.771 100.173 145.771 100.316 145.771C100.364 146.96 99.9832 147.911 98.7465 148.482C99.3648 149.386 99.9832 150.242 100.602 151.146C100.031 151.289 99.6027 151.336 99.3173 150.765C99.127 150.385 98.794 150.052 98.6038 149.671C98.1757 148.767 97.5098 148.577 96.5585 148.863C96.606 149.576 96.606 150.337 96.606 151.193Z" fill="#282F41"/>
<path id="Vector_21" d="M91.2309 147.34C90.8028 147.436 90.4698 147.388 90.1844 147.008C89.5185 146.151 88.0915 146.199 87.2829 147.008C86.4743 147.816 86.5694 149.291 87.4256 150.004C88.2818 150.718 89.6612 150.67 90.2796 149.766C90.565 149.338 90.8979 149.291 91.326 149.386C91.2309 150.48 89.899 151.336 88.6623 151.289C87.0451 151.194 85.9035 150.099 85.8084 148.53C85.7608 147.055 86.7597 145.818 88.2342 145.628C89.7088 145.438 90.993 146.151 91.2309 147.34Z" fill="#282F41"/>
<path id="Vector_22" d="M160.772 151.193C160.439 151.193 160.201 151.193 159.916 151.193C159.916 149.671 159.916 148.102 159.916 146.532C159.25 146.532 158.631 146.532 157.965 146.532C157.965 146.246 157.965 146.009 157.965 145.771C159.535 145.771 161.105 145.771 162.674 145.771C162.674 146.009 162.674 146.199 162.674 146.532C162.056 146.532 161.438 146.532 160.772 146.532C160.772 148.102 160.772 149.624 160.772 151.193Z" fill="#282F41"/>
<path id="Vector_23" d="M115.442 143.487C115.584 143.44 115.774 143.44 115.917 143.392C116.583 144.486 117.297 144.534 118.153 143.535C118.248 143.392 118.533 143.44 118.771 143.392C118.676 144.391 118.01 144.914 117.106 144.914C116.155 144.914 115.537 144.391 115.442 143.487Z" fill="#282F41"/>
</g>
</g>
</svg>
